<?xml version="1.0" encoding="utf-8" standalone="no"?>
<!DOCTYPE svg PUBLIC "-//W3C//DTD SVG 1.1//EN"
  "http://www.w3.org/Graphics/SVG/1.1/DTD/svg11.dtd">
<svg xmlns:xlink="http://www.w3.org/1999/xlink" width="1080pt" height="403.2pt" viewBox="0 0 1080 403.2" xmlns="http://www.w3.org/2000/svg" version="1.1">
 <metadata>
  <rdf:RDF xmlns:dc="http://purl.org/dc/elements/1.1/" xmlns:cc="http://creativecommons.org/ns#" xmlns:rdf="http://www.w3.org/1999/02/22-rdf-syntax-ns#">
   <cc:Work>
    <dc:type rdf:resource="http://purl.org/dc/dcmitype/StillImage"/>
    <dc:date>2026-09-21T00:03:04.957157</dc:date>
    <dc:format>image/svg+xml</dc:format>
    <dc:creator>
     <cc:Agent>
      <dc:title>Matplotlib v3.10.3, https://matplotlib.org/</dc:title>
     </cc:Agent>
    </dc:creator>
   </cc:Work>
  </rdf:RDF>
 </metadata>
 <defs>
  <style type="text/css">*{stroke-linejoin: round; stroke-linecap: butt}</style>
 </defs>
 <g id="figure_1">
  <g id="patch_1">
   <path d="M 0 403.2
L 1080 403.2
L 1080 0
L 0 0
z
" style="fill: #ffffff"/>
  </g>
  <g id="axes_1">
   <g id="patch_2">
    <path d="M 19.266667 158.067143
L 161.933333 158.067143
Q 167.64 158.067143 167.64 152.45
L 167.64 93.47
Q 167.64 87.852857 161.933333 87.852857
L 19.266667 87.852857
Q 13.56 87.852857 13.56 93.47
L 13.56 152.45
Q 13.56 158.067143 19.266667 158.067143
z
" clip-path="url(#p6ff7e57c82)" style="fill: #e5f1f3; stroke: #426070; stroke-width: 1.2; stroke-linejoin: miter"/>
   </g>
   <g id="patch_3">
    <path d="M 215.433333 158.067143
L 358.1 158.067143
Q 363.806667 158.067143 363.806667 152.45
L 363.806667 93.47
Q 363.806667 87.852857 358.1 87.852857
L 215.433333 87.852857
Q 209.726667 87.852857 209.726667 93.47
L 209.726667 152.45
Q 209.726667 158.067143 215.433333 158.067143
z
" clip-path="url(#p6ff7e57c82)" style="fill: #e5f1f3; stroke: #426070; stroke-width: 1.2; stroke-linejoin: miter"/>
   </g>
   <g id="patch_4">
    <path d="M 415.166667 158.067143
L 582.8 158.067143
Q 588.506667 158.067143 588.506667 152.45
L 588.506667 93.47
Q 588.506667 87.852857 582.8 87.852857
L 415.166667 87.852857
Q 409.46 87.852857 409.46 93.47
L 409.46 152.45
Q 409.46 158.067143 415.166667 158.067143
z
" clip-path="url(#p6ff7e57c82)" style="fill: #e5f1f3; stroke: #426070; stroke-width: 1.2; stroke-linejoin: miter"/>
   </g>
   <g id="patch_5">
    <path d="M 643.433333 158.067143
L 796.8 158.067143
Q 802.506667 158.067143 802.506667 152.45
L 802.506667 93.47
Q 802.506667 87.852857 796.8 87.852857
L 643.433333 87.852857
Q 637.726667 87.852857 637.726667 93.47
L 637.726667 152.45
Q 637.726667 158.067143 643.433333 158.067143
z
" clip-path="url(#p6ff7e57c82)" style="fill: #e5f1f3; stroke: #426070; stroke-width: 1.2; stroke-linejoin: miter"/>
   </g>
   <g id="patch_6">
    <path d="M 861 158.067143
L 1046.466667 158.067143
Q 1052.173333 158.067143 1052.173333 152.45
L 1052.173333 93.47
Q 1052.173333 87.852857 1046.466667 87.852857
L 861 87.852857
Q 855.293333 87.852857 855.293333 93.47
L 855.293333 152.45
Q 855.293333 158.067143 861 158.067143
z
" clip-path="url(#p6ff7e57c82)" style="fill: #e5f1f3; stroke: #426070; stroke-width: 1.2; stroke-linejoin: miter"/>
   </g>
   <g id="patch_7">
    <path d="M 171.063774 122.96
Q 188.679618 122.96 204.786116 122.96
" clip-path="url(#p6ff7e57c82)" style="fill: none; stroke: #426070; stroke-width: 1.35; stroke-linecap: round"/>
    <path d="M 199.586116 120.36
L 204.786116 122.96
L 199.586116 125.56
z
" clip-path="url(#p6ff7e57c82)" style="fill: #426070; stroke: #426070; stroke-width: 1.35; stroke-linecap: round"/>
   </g>
   <g id="patch_8">
    <path d="M 367.231746 122.96
Q 386.633917 122.96 404.526742 122.96
" clip-path="url(#p6ff7e57c82)" style="fill: none; stroke: #426070; stroke-width: 1.35; stroke-linecap: round"/>
    <path d="M 399.326742 120.36
L 404.526742 122.96
L 399.326742 125.56
z
" clip-path="url(#p6ff7e57c82)" style="fill: #426070; stroke: #426070; stroke-width: 1.35; stroke-linecap: round"/>
   </g>
   <g id="patch_9">
    <path d="M 591.934141 122.96
Q 613.11651 122.96 632.789533 122.96
" clip-path="url(#p6ff7e57c82)" style="fill: none; stroke: #426070; stroke-width: 1.35; stroke-linecap: round"/>
    <path d="M 627.589533 120.36
L 632.789533 122.96
L 627.589533 125.56
z
" clip-path="url(#p6ff7e57c82)" style="fill: #426070; stroke: #426070; stroke-width: 1.35; stroke-linecap: round"/>
   </g>
   <g id="patch_10">
    <path d="M 805.935665 122.96
Q 828.902116 122.96 850.359221 122.96
" clip-path="url(#p6ff7e57c82)" style="fill: none; stroke: #426070; stroke-width: 1.35; stroke-linecap: round"/>
    <path d="M 845.159221 120.36
L 850.359221 122.96
L 845.159221 125.56
z
" clip-path="url(#p6ff7e57c82)" style="fill: #426070; stroke: #426070; stroke-width: 1.35; stroke-linecap: round"/>
   </g>
   <g id="patch_11">
    <path d="M 861 273.920714
L 1046.466667 273.920714
Q 1052.173333 273.920714 1052.173333 268.303571
L 1052.173333 209.323571
Q 1052.173333 203.706429 1046.466667 203.706429
L 861 203.706429
Q 855.293333 203.706429 855.293333 209.323571
L 855.293333 268.303571
Q 855.293333 273.920714 861 273.920714
z
" clip-path="url(#p6ff7e57c82)" style="fill: #e5f1f3; stroke: #426070; stroke-width: 1.2; stroke-linejoin: miter"/>
   </g>
   <g id="patch_12">
    <path d="M 643.433333 273.920714
L 796.8 273.920714
Q 802.506667 273.920714 802.506667 268.303571
L 802.506667 209.323571
Q 802.506667 203.706429 796.8 203.706429
L 643.433333 203.706429
Q 637.726667 203.706429 637.726667 209.323571
L 637.726667 268.303571
Q 637.726667 273.920714 643.433333 273.920714
z
" clip-path="url(#p6ff7e57c82)" style="fill: #e5f1f3; stroke: #426070; stroke-width: 1.2; stroke-linejoin: miter"/>
   </g>
   <g id="patch_13">
    <path d="M 953.733333 161.471276
Q 953.733333 180.88737 953.733333 198.794118
" clip-path="url(#p6ff7e57c82)" style="fill: none; stroke: #426070; stroke-width: 1.35; stroke-linecap: round"/>
    <path d="M 956.333333 193.594118
L 953.733333 198.794118
L 951.133333 193.594118
z
" clip-path="url(#p6ff7e57c82)" style="fill: #426070; stroke: #426070; stroke-width: 1.35; stroke-linecap: round"/>
   </g>
   <g id="patch_14">
    <path d="M 851.864335 238.813571
Q 828.897884 238.813571 807.440779 238.813571
" clip-path="url(#p6ff7e57c82)" style="fill: none; stroke: #426070; stroke-width: 1.35; stroke-linecap: round"/>
    <path d="M 812.640779 241.413571
L 807.440779 238.813571
L 812.640779 236.213571
z
" clip-path="url(#p6ff7e57c82)" style="fill: #426070; stroke: #426070; stroke-width: 1.35; stroke-linecap: round"/>
   </g>
   <g id="patch_15">
    <path d="M 652.228419 201.683889
Q 588.148159 180.886188 525.503525 160.55443
" clip-path="url(#p6ff7e57c82)" style="fill: none; stroke: #426070; stroke-width: 1.35; stroke-linecap: round"/>
    <path d="M 529.646913 164.632706
L 525.503525 160.55443
L 531.252179 159.686685
z
" clip-path="url(#p6ff7e57c82)" style="fill: #426070; stroke: #426070; stroke-width: 1.35; stroke-linecap: round"/>
   </g>
   <g id="patch_16">
    <path d="M 19.266667 375.731429
L 247.533333 375.731429
Q 253.24 375.731429 253.24 370.114286
L 253.24 311.134286
Q 253.24 305.517143 247.533333 305.517143
L 19.266667 305.517143
Q 13.56 305.517143 13.56 311.134286
L 13.56 370.114286
Q 13.56 375.731429 19.266667 375.731429
z
" clip-path="url(#p6ff7e57c82)" style="fill: #fff0da; stroke: #426070; stroke-width: 1.2; stroke-linejoin: miter"/>
   </g>
   <g id="patch_17">
    <path d="M 372.366667 375.731429
L 743.3 375.731429
Q 749.006667 375.731429 749.006667 370.114286
L 749.006667 311.134286
Q 749.006667 305.517143 743.3 305.517143
L 372.366667 305.517143
Q 366.66 305.517143 366.66 311.134286
L 366.66 370.114286
Q 366.66 375.731429 372.366667 375.731429
z
" clip-path="url(#p6ff7e57c82)" style="fill: #fff0da; stroke: #426070; stroke-width: 1.2; stroke-linejoin: miter"/>
   </g>
   <g id="patch_18">
    <path d="M 256.667583 340.624286
Q 309.951539 340.624286 361.72615 340.624286
" clip-path="url(#p6ff7e57c82)" style="fill: none; stroke: #426070; stroke-width: 1.35; stroke-linecap: round"/>
    <path d="M 356.52615 338.024286
L 361.72615 340.624286
L 356.52615 343.224286
z
" clip-path="url(#p6ff7e57c82)" style="fill: #426070; stroke: #426070; stroke-width: 1.35; stroke-linecap: round"/>
   </g>
   <g id="patch_19">
    <path d="M 709.541187 276.44074
Q 689.800498 289.718593 671.312213 302.154063
" clip-path="url(#p6ff7e57c82)" style="fill: none; stroke: #426070; stroke-width: 1.35; stroke-linecap: round"/>
    <path d="M 677.078086 301.409273
L 671.312213 302.154063
L 674.175905 297.094491
z
" clip-path="url(#p6ff7e57c82)" style="fill: #426070; stroke: #426070; stroke-width: 1.35; stroke-linecap: round"/>
   </g>
   <g id="patch_20">
    <path d="M 769.83492 340.624286
Q 761.135942 340.624286 753.94631 340.624286
" clip-path="url(#p6ff7e57c82)" style="fill: none; stroke: #426070; stroke-width: 1.35; stroke-linecap: round"/>
    <path d="M 759.14631 343.224286
L 753.94631 340.624286
L 759.14631 338.024286
z
" clip-path="url(#p6ff7e57c82)" style="fill: #426070; stroke: #426070; stroke-width: 1.35; stroke-linecap: round"/>
   </g>
   <g id="line2d_1">
    <path d="M 1053.6 122.96
L 1069.293333 122.96
L 1069.293333 340.624286
L 771.833333 340.624286
" clip-path="url(#p6ff7e57c82)" style="fill: none; stroke: #426070; stroke-width: 1.35; stroke-linecap: square"/>
   </g>
   <g id="text_1">
    <text style="font-size: 11px; font-family: 'DejaVu Sans', 'Bitstream Vera Sans', 'Computer Modern Sans Serif', 'Lucida Grande', 'Verdana', 'Geneva', 'Lucid', 'Arial', 'Helvetica', 'Avant Garde', sans-serif; fill: #203c50" transform="translate(69.042578 119.836516)">Allowed</text>
    <text style="font-size: 11px; font-family: 'DejaVu Sans', 'Bitstream Vera Sans', 'Computer Modern Sans Serif', 'Lucida Grande', 'Verdana', 'Geneva', 'Lucid', 'Arial', 'Helvetica', 'Avant Garde', sans-serif; fill: #203c50" transform="translate(49.3225 132.154109)">observations H</text>
   </g>
   <g id="text_2">
    <text style="font-size: 11px; font-family: 'DejaVu Sans', 'Bitstream Vera Sans', 'Computer Modern Sans Serif', 'Lucida Grande', 'Verdana', 'Geneva', 'Lucid', 'Arial', 'Helvetica', 'Avant Garde', sans-serif; fill: #203c50" transform="translate(247.109089 119.836516)">Reconstructed</text>
    <text style="font-size: 11px; font-family: 'DejaVu Sans', 'Bitstream Vera Sans', 'Computer Modern Sans Serif', 'Lucida Grande', 'Verdana', 'Geneva', 'Lucid', 'Arial', 'Helvetica', 'Avant Garde', sans-serif; fill: #203c50" transform="translate(241.945104 132.154109)">world state R(H)</text>
   </g>
   <g id="text_3">
    <text style="font-size: 11px; font-family: 'DejaVu Sans', 'Bitstream Vera Sans', 'Computer Modern Sans Serif', 'Lucida Grande', 'Verdana', 'Geneva', 'Lucid', 'Arial', 'Helvetica', 'Avant Garde', sans-serif; fill: #203c50" transform="translate(478.604974 119.836516)">Edit I +</text>
    <text style="font-size: 11px; font-family: 'DejaVu Sans', 'Bitstream Vera Sans', 'Computer Modern Sans Serif', 'Lucida Grande', 'Verdana', 'Geneva', 'Lucid', 'Arial', 'Helvetica', 'Avant Garde', sans-serif; fill: #203c50" transform="translate(460.907005 132.154109)">state encoder</text>
   </g>
   <g id="text_4">
    <text style="font-size: 11px; font-family: 'DejaVu Sans', 'Bitstream Vera Sans', 'Computer Modern Sans Serif', 'Lucida Grande', 'Verdana', 'Geneva', 'Lucid', 'Arial', 'Helvetica', 'Avant Garde', sans-serif; fill: #203c50" transform="translate(692.186979 119.836516)">Generator</text>
    <text style="font-size: 11px; font-family: 'DejaVu Sans', 'Bitstream Vera Sans', 'Computer Modern Sans Serif', 'Lucida Grande', 'Verdana', 'Geneva', 'Lucid', 'Arial', 'Helvetica', 'Avant Garde', sans-serif; fill: #203c50" transform="translate(694.843307 132.154109)">+ history</text>
   </g>
   <g id="text_5">
    <text style="font-size: 11px; font-family: 'DejaVu Sans', 'Bitstream Vera Sans', 'Computer Modern Sans Serif', 'Lucida Grande', 'Verdana', 'Geneva', 'Lucid', 'Arial', 'Helvetica', 'Avant Garde', sans-serif; fill: #203c50" transform="translate(924.554115 119.836516)">Generated</text>
    <text style="font-size: 11px; font-family: 'DejaVu Sans', 'Bitstream Vera Sans', 'Computer Modern Sans Serif', 'Lucida Grande', 'Verdana', 'Geneva', 'Lucid', 'Arial', 'Helvetica', 'Avant Garde', sans-serif; fill: #203c50" transform="translate(898.365521 132.154109)">sensor observations</text>
   </g>
   <g id="text_6">
    <text style="font-size: 11px; font-family: 'DejaVu Sans', 'Bitstream Vera Sans', 'Computer Modern Sans Serif', 'Lucida Grande', 'Verdana', 'Geneva', 'Lucid', 'Arial', 'Helvetica', 'Avant Garde', sans-serif; text-anchor: middle; fill: #203c50" x="953.733333" y="241.848884" transform="rotate(-0 953.733333 241.848884)">Fixed policy</text>
   </g>
   <g id="text_7">
    <text style="font-size: 11px; font-family: 'DejaVu Sans', 'Bitstream Vera Sans', 'Computer Modern Sans Serif', 'Lucida Grande', 'Verdana', 'Geneva', 'Lucid', 'Arial', 'Helvetica', 'Avant Garde', sans-serif; fill: #203c50" transform="translate(689.39487 235.690087)">Dynamics /</text>
    <text style="font-size: 11px; font-family: 'DejaVu Sans', 'Bitstream Vera Sans', 'Computer Modern Sans Serif', 'Lucida Grande', 'Verdana', 'Geneva', 'Lucid', 'Arial', 'Helvetica', 'Avant Garde', sans-serif; fill: #203c50" transform="translate(685.030104 248.007681)">traffic model</text>
   </g>
   <g id="text_8">
    <text style="font-size: 9px; font-family: 'DejaVu Sans', 'Bitstream Vera Sans', 'Computer Modern Sans Serif', 'Lucida Grande', 'Verdana', 'Geneva', 'Lucid', 'Arial', 'Helvetica', 'Avant Garde', sans-serif; text-anchor: middle; fill: #426070" x="828.9" y="230.387857" transform="rotate(-0 828.9 230.387857)">action</text>
   </g>
   <g id="text_9">
    <text style="font-size: 9px; font-family: 'DejaVu Sans', 'Bitstream Vera Sans', 'Computer Modern Sans Serif', 'Lucida Grande', 'Verdana', 'Geneva', 'Lucid', 'Arial', 'Helvetica', 'Avant Garde', sans-serif; text-anchor: middle; fill: #426070" x="588.15" y="172.461071" transform="rotate(-0 588.15 172.461071)">next state</text>
   </g>
   <g id="text_10">
    <text style="font-size: 11px; font-family: 'DejaVu Sans', 'Bitstream Vera Sans', 'Computer Modern Sans Serif', 'Lucida Grande', 'Verdana', 'Geneva', 'Lucid', 'Arial', 'Helvetica', 'Avant Garde', sans-serif; fill: #203c50" transform="translate(70.531563 337.500801)">Independent reference</text>
    <text style="font-size: 11px; font-family: 'DejaVu Sans', 'Bitstream Vera Sans', 'Computer Modern Sans Serif', 'Lucida Grande', 'Verdana', 'Geneva', 'Lucid', 'Arial', 'Helvetica', 'Avant Garde', sans-serif; fill: #203c50" transform="translate(64.228906 349.818395)">S + same semantic edit I</text>
   </g>
   <g id="text_11">
    <text style="font-size: 11px; font-family: 'DejaVu Sans', 'Bitstream Vera Sans', 'Computer Modern Sans Serif', 'Lucida Grande', 'Verdana', 'Geneva', 'Lucid', 'Arial', 'Helvetica', 'Avant Garde', sans-serif; fill: #203c50" transform="translate(477.781693 337.500801)">State / visibility / task fidelity</text>
    <text style="font-size: 11px; font-family: 'DejaVu Sans', 'Bitstream Vera Sans', 'Computer Modern Sans Serif', 'Lucida Grande', 'Verdana', 'Geneva', 'Lucid', 'Arial', 'Helvetica', 'Avant Garde', sans-serif; fill: #203c50" transform="translate(453.941771 349.818395)">compare against supported reference</text>
   </g>
   <g id="text_12">
    <text style="font-weight: 700; font-size: 17px; font-family: 'DejaVu Sans', 'Bitstream Vera Sans', 'Computer Modern Sans Serif', 'Lucida Grande', 'Verdana', 'Geneva', 'Lucid', 'Arial', 'Helvetica', 'Avant Garde', sans-serif; text-anchor: start; fill: #203c50" x="19.266667" y="43.617857" transform="rotate(-0 19.266667 43.617857)">WorldSim quality = fidelity to the edited world and its consequences</text>
   </g>
   <g id="text_13">
    <text style="font-size: 11px; font-family: 'DejaVu Sans', 'Bitstream Vera Sans', 'Computer Modern Sans Serif', 'Lucida Grande', 'Verdana', 'Geneva', 'Lucid', 'Arial', 'Helvetica', 'Avant Garde', sans-serif; text-anchor: start; fill: #546c7b" x="19.266667" y="69.597143" transform="rotate(-0 19.266667 69.597143)">Reference is for evaluation only. Policy success alone does not establish simulator fidelity.</text>
   </g>
  </g>
 </g>
 <defs>
  <clipPath id="p6ff7e57c82">
   <rect x="5" y="5" width="1070" height="393.2"/>
  </clipPath>
 </defs>
</svg>
