<?xml version="1.0" encoding="utf-8" standalone="no"?>
<!DOCTYPE svg PUBLIC "-//W3C//DTD SVG 1.1//EN"
  "http://www.w3.org/Graphics/SVG/1.1/DTD/svg11.dtd">
<svg xmlns:xlink="http://www.w3.org/1999/xlink" width="1152pt" height="367.2pt" viewBox="0 0 1152 367.2" xmlns="http://www.w3.org/2000/svg" version="1.1">
 <metadata>
  <rdf:RDF xmlns:dc="http://purl.org/dc/elements/1.1/" xmlns:cc="http://creativecommons.org/ns#" xmlns:rdf="http://www.w3.org/1999/02/22-rdf-syntax-ns#">
   <cc:Work>
    <dc:type rdf:resource="http://purl.org/dc/dcmitype/StillImage"/>
    <dc:date>2026-09-08T18:31:22.236500</dc:date>
    <dc:format>image/svg+xml</dc:format>
    <dc:creator>
     <cc:Agent>
      <dc:title>Matplotlib v3.9.4, https://matplotlib.org/</dc:title>
     </cc:Agent>
    </dc:creator>
   </cc:Work>
  </rdf:RDF>
 </metadata>
 <defs>
  <style type="text/css">*{stroke-linejoin: round; stroke-linecap: butt}</style>
 </defs>
 <g id="figure_1">
  <g id="patch_1">
   <path d="M 0 367.2
L 1152 367.2
L 1152 0
L 0 0
z
" style="fill: #ffffff"/>
  </g>
  <g id="axes_1">
   <g id="patch_2">
    <path d="M 20.3724 154.0188
L 109.4724 154.0188
Q 118.026 154.0188 118.026 145.4652
L 118.026 64.9188
Q 118.026 56.3652 109.4724 56.3652
L 20.3724 56.3652
Q 11.8188 56.3652 11.8188 64.9188
L 11.8188 145.4652
Q 11.8188 154.0188 20.3724 154.0188
z
" clip-path="url(#p349d09cdf7)" style="fill: #fff3cd; stroke: #25313b; stroke-width: 1.8; stroke-linejoin: miter"/>
   </g>
   <g id="patch_3">
    <path d="M 150.102 154.0188
L 278.406 154.0188
Q 286.9596 154.0188 286.9596 145.4652
L 286.9596 64.9188
Q 286.9596 56.3652 278.406 56.3652
L 150.102 56.3652
Q 141.5484 56.3652 141.5484 64.9188
L 141.5484 145.4652
Q 141.5484 154.0188 150.102 154.0188
z
" clip-path="url(#p349d09cdf7)" style="fill: #deebf7; stroke: #25313b; stroke-width: 1.8; stroke-linejoin: miter"/>
   </g>
   <g id="patch_4">
    <path d="M 319.0356 154.0188
L 435.222 154.0188
Q 443.7756 154.0188 443.7756 145.4652
L 443.7756 64.9188
Q 443.7756 56.3652 435.222 56.3652
L 319.0356 56.3652
Q 310.482 56.3652 310.482 64.9188
L 310.482 145.4652
Q 310.482 154.0188 319.0356 154.0188
z
" clip-path="url(#p349d09cdf7)" style="fill: #dff0df; stroke: #25313b; stroke-width: 1.8; stroke-linejoin: miter"/>
   </g>
   <g id="patch_5">
    <path d="M 475.8516 154.0188
L 609.858 154.0188
Q 618.4116 154.0188 618.4116 145.4652
L 618.4116 64.9188
Q 618.4116 56.3652 609.858 56.3652
L 475.8516 56.3652
Q 467.298 56.3652 467.298 64.9188
L 467.298 145.4652
Q 467.298 154.0188 475.8516 154.0188
z
" clip-path="url(#p349d09cdf7)" style="fill: #f2f3f5; stroke: #25313b; stroke-width: 1.8; stroke-linejoin: miter"/>
   </g>
   <g id="patch_6">
    <path d="M 650.4876 154.0188
L 813.7188 154.0188
Q 822.2724 154.0188 822.2724 145.4652
L 822.2724 64.9188
Q 822.2724 56.3652 813.7188 56.3652
L 650.4876 56.3652
Q 641.934 56.3652 641.934 64.9188
L 641.934 145.4652
Q 641.934 154.0188 650.4876 154.0188
z
" clip-path="url(#p349d09cdf7)" style="fill: #dff0df; stroke: #25313b; stroke-width: 1.8; stroke-linejoin: miter"/>
   </g>
   <g id="patch_7">
    <path d="M 854.3484 154.0188
L 965.5452 154.0188
Q 974.0988 154.0188 974.0988 145.4652
L 974.0988 64.9188
Q 974.0988 56.3652 965.5452 56.3652
L 854.3484 56.3652
Q 845.7948 56.3652 845.7948 64.9188
L 845.7948 145.4652
Q 845.7948 154.0188 854.3484 154.0188
z
" clip-path="url(#p349d09cdf7)" style="fill: #dff0df; stroke: #25313b; stroke-width: 1.8; stroke-linejoin: miter"/>
   </g>
   <g id="patch_8">
    <path d="M 1006.1748 154.0188
L 1130.202 154.0188
Q 1138.7556 154.0188 1138.7556 145.4652
L 1138.7556 64.9188
Q 1138.7556 56.3652 1130.202 56.3652
L 1006.1748 56.3652
Q 997.6212 56.3652 997.6212 64.9188
L 997.6212 145.4652
Q 997.6212 154.0188 1006.1748 154.0188
z
" clip-path="url(#p349d09cdf7)" style="fill: #fce4d6; stroke: #25313b; stroke-width: 1.8; stroke-linejoin: miter"/>
   </g>
   <g id="patch_9">
    <path d="M 120.384366 105.192
Q 129.788695 105.192 137.180563 105.192
" clip-path="url(#p349d09cdf7)" style="fill: none; stroke: #25313b; stroke-width: 1.8; stroke-linecap: round"/>
    <path d="M 129.580563 101.392
L 137.180563 105.192
L 129.580563 108.992
z
" clip-path="url(#p349d09cdf7)" style="fill: #25313b; stroke: #25313b; stroke-width: 1.8; stroke-linecap: round"/>
   </g>
   <g id="patch_10">
    <path d="M 289.317966 105.192
Q 298.722295 105.192 306.114163 105.192
" clip-path="url(#p349d09cdf7)" style="fill: none; stroke: #25313b; stroke-width: 1.8; stroke-linecap: round"/>
    <path d="M 298.514163 101.392
L 306.114163 105.192
L 298.514163 108.992
z
" clip-path="url(#p349d09cdf7)" style="fill: #25313b; stroke: #25313b; stroke-width: 1.8; stroke-linecap: round"/>
   </g>
   <g id="patch_11">
    <path d="M 446.133966 105.192
Q 455.538295 105.192 462.930163 105.192
" clip-path="url(#p349d09cdf7)" style="fill: none; stroke: #25313b; stroke-width: 1.8; stroke-linecap: round"/>
    <path d="M 455.330163 101.392
L 462.930163 105.192
L 455.330163 108.992
z
" clip-path="url(#p349d09cdf7)" style="fill: #25313b; stroke: #25313b; stroke-width: 1.8; stroke-linecap: round"/>
   </g>
   <g id="patch_12">
    <path d="M 620.769966 105.192
Q 630.174295 105.192 637.566163 105.192
" clip-path="url(#p349d09cdf7)" style="fill: none; stroke: #25313b; stroke-width: 1.8; stroke-linecap: round"/>
    <path d="M 629.966163 101.392
L 637.566163 105.192
L 629.966163 108.992
z
" clip-path="url(#p349d09cdf7)" style="fill: #25313b; stroke: #25313b; stroke-width: 1.8; stroke-linecap: round"/>
   </g>
   <g id="patch_13">
    <path d="M 824.630766 105.192
Q 834.035095 105.192 841.426963 105.192
" clip-path="url(#p349d09cdf7)" style="fill: none; stroke: #25313b; stroke-width: 1.8; stroke-linecap: round"/>
    <path d="M 833.826963 101.392
L 841.426963 105.192
L 833.826963 108.992
z
" clip-path="url(#p349d09cdf7)" style="fill: #25313b; stroke: #25313b; stroke-width: 1.8; stroke-linecap: round"/>
   </g>
   <g id="patch_14">
    <path d="M 976.457166 105.192
Q 985.861495 105.192 993.253363 105.192
" clip-path="url(#p349d09cdf7)" style="fill: none; stroke: #25313b; stroke-width: 1.8; stroke-linecap: round"/>
    <path d="M 985.653363 101.392
L 993.253363 105.192
L 985.653363 108.992
z
" clip-path="url(#p349d09cdf7)" style="fill: #25313b; stroke: #25313b; stroke-width: 1.8; stroke-linecap: round"/>
   </g>
   <g id="patch_15">
    <path d="M 20.3724 293.0148
L 211.4028 293.0148
Q 219.9564 293.0148 219.9564 284.4612
L 219.9564 221.7348
Q 219.9564 213.1812 211.4028 213.1812
L 20.3724 213.1812
Q 11.8188 213.1812 11.8188 221.7348
L 11.8188 284.4612
Q 11.8188 293.0148 20.3724 293.0148
z
" clip-path="url(#p349d09cdf7)" style="fill: #fff3cd; stroke: #25313b; stroke-width: 1.8; stroke-linejoin: miter"/>
   </g>
   <g id="patch_16">
    <path d="M 687.1968 187.302784
Q 687.1968 171.837833 687.1968 158.385343
" clip-path="url(#p349d09cdf7)" style="fill: none; stroke: #25313b; stroke-width: 1.8; stroke-linecap: round"/>
    <path d="M 683.3968 165.985343
L 687.1968 158.385343
L 690.9968 165.985343
z
" clip-path="url(#p349d09cdf7)" style="fill: #25313b; stroke: #25313b; stroke-width: 1.8; stroke-linecap: round"/>
   </g>
   <g id="patch_17">
    <path d="M 543.2112 156.374816
Q 543.2112 171.839767 543.2112 185.292257
" clip-path="url(#p349d09cdf7)" style="fill: none; stroke: #25313b; stroke-width: 1.8; stroke-linecap: round"/>
    <path d="M 547.0112 177.692257
L 543.2112 185.292257
L 539.4112 177.692257
z
" clip-path="url(#p349d09cdf7)" style="fill: #25313b; stroke: #25313b; stroke-width: 1.8; stroke-linecap: round"/>
   </g>
   <g id="patch_18">
    <path d="M 299.0772 300.8556
L 613.422 300.8556
Q 621.9756 300.8556 621.9756 292.302
L 621.9756 221.7348
Q 621.9756 213.1812 613.422 213.1812
L 299.0772 213.1812
Q 290.5236 213.1812 290.5236 221.7348
L 290.5236 292.302
Q 290.5236 300.8556 299.0772 300.8556
z
" clip-path="url(#p349d09cdf7)" style="fill: #f2f3f5; stroke: #25313b; stroke-width: 1.8; stroke-linejoin: miter"/>
   </g>
   <g id="patch_19">
    <path d="M 772.7328 255.016782
Q 772.7328 205.695712 772.7328 158.387102
" clip-path="url(#p349d09cdf7)" style="fill: none; stroke: #25313b; stroke-width: 1.8; stroke-linecap: round"/>
    <path d="M 768.9328 165.987102
L 772.7328 158.387102
L 776.5328 165.987102
z
" clip-path="url(#p349d09cdf7)" style="fill: #25313b; stroke: #25313b; stroke-width: 1.8; stroke-linecap: round"/>
   </g>
   <g id="patch_20">
    <path d="M 854.3484 300.8556
L 1130.202 300.8556
Q 1138.7556 300.8556 1138.7556 292.302
L 1138.7556 221.7348
Q 1138.7556 213.1812 1130.202 213.1812
L 854.3484 213.1812
Q 845.7948 213.1812 845.7948 221.7348
L 845.7948 292.302
Q 845.7948 300.8556 854.3484 300.8556
z
" clip-path="url(#p349d09cdf7)" style="fill: #f2f3f5; stroke: #25313b; stroke-width: 1.8; stroke-linejoin: miter"/>
   </g>
   <g id="patch_21">
    <path d="M 1067.832 156.376557
Q 1067.832 183.599811 1067.832 208.810604
" clip-path="url(#p349d09cdf7)" style="fill: none; stroke: #25313b; stroke-width: 1.8; stroke-linecap: round"/>
    <path d="M 1071.632 201.210604
L 1067.832 208.810604
L 1064.032 201.210604
z
" clip-path="url(#p349d09cdf7)" style="fill: #25313b; stroke: #25313b; stroke-width: 1.8; stroke-linecap: round"/>
   </g>
   <g id="patch_22">
    <path d="M 21.4416 26.784
L 34.9848 26.784
Q 37.1232 26.784 37.1232 24.6456
L 37.1232 11.1024
Q 37.1232 8.964 34.9848 8.964
L 21.4416 8.964
Q 19.3032 8.964 19.3032 11.1024
L 19.3032 24.6456
Q 19.3032 26.784 21.4416 26.784
z
" clip-path="url(#p349d09cdf7)" style="fill: #deebf7; stroke: #25313b; stroke-linejoin: miter"/>
   </g>
   <g id="patch_23">
    <path d="M 167.5656 26.784
L 181.1088 26.784
Q 183.2472 26.784 183.2472 24.6456
L 183.2472 11.1024
Q 183.2472 8.964 181.1088 8.964
L 167.5656 8.964
Q 165.4272 8.964 165.4272 11.1024
L 165.4272 24.6456
Q 165.4272 26.784 167.5656 26.784
z
" clip-path="url(#p349d09cdf7)" style="fill: #dff0df; stroke: #25313b; stroke-linejoin: miter"/>
   </g>
   <g id="patch_24">
    <path d="M 342.2016 26.784
L 355.7448 26.784
Q 357.8832 26.784 357.8832 24.6456
L 357.8832 11.1024
Q 357.8832 8.964 355.7448 8.964
L 342.2016 8.964
Q 340.0632 8.964 340.0632 11.1024
L 340.0632 24.6456
Q 340.0632 26.784 342.2016 26.784
z
" clip-path="url(#p349d09cdf7)" style="fill: #f2f3f5; stroke: #25313b; stroke-linejoin: miter"/>
   </g>
   <g id="line2d_1">
    <path d="M 217.4616 252.7416
L 245.9736 252.7416
L 245.9736 189.3024
L 687.1968 189.3024
" clip-path="url(#p349d09cdf7)" style="fill: none; stroke: #25313b; stroke-width: 1.8; stroke-linecap: square"/>
   </g>
   <g id="line2d_2">
    <path d="M 622.332 257.0184
L 772.7328 257.0184
" clip-path="url(#p349d09cdf7)" style="fill: none; stroke: #25313b; stroke-width: 1.8; stroke-linecap: square"/>
   </g>
   <g id="text_1">
    <text style="fill: #25313b; font: 20px 'DejaVu Sans'" transform="translate(14.106775 99.512937)">Multi-view</text>
    <text style="fill: #25313b; font: 20px 'DejaVu Sans'" transform="translate(28.564587 121.908562)">images</text>
   </g>
   <g id="text_2">
    <text style="fill: #25313b; font: 20px 'DejaVu Sans'" transform="translate(147.7915 99.512937)">Shared VGGT</text>
    <text style="fill: #25313b; font: 20px 'DejaVu Sans'" transform="translate(185.649313 121.908562)">prefix</text>
   </g>
   <g id="text_3">
    <text style="fill: #25313b; font: 20px 'DejaVu Sans'" transform="translate(321.733488 99.512937)">Native DPT</text>
    <text style="fill: #25313b; font: 20px 'DejaVu Sans'" transform="translate(336.39755 121.908562)">decoder</text>
   </g>
   <g id="text_4">
    <text style="fill: #25313b; font: 20px 'DejaVu Sans'" transform="translate(500.837612 99.512937)">Depth +</text>
    <text style="fill: #25313b; font: 20px 'DejaVu Sans'" transform="translate(476.512612 121.908562)">4-scale maps</text>
   </g>
   <g id="text_5">
    <text style="fill: #25313b; font: 18px 'DejaVu Sans'" transform="translate(683.205075 90.002812)">3D queries</text>
    <text style="fill: #25313b; font: 18px 'DejaVu Sans'" transform="translate(659.598356 110.158875)">local interaction</text>
    <text style="fill: #25313b; font: 18px 'DejaVu Sans'" transform="translate(657.013669 130.314937)">+ view sampling</text>
   </g>
   <g id="text_6">
    <text style="fill: #25313b; font: 20px 'DejaVu Sans'" transform="translate(882.482738 99.512937)">Patch</text>
    <text style="fill: #25313b; font: 20px 'DejaVu Sans'" transform="translate(884.979613 121.908562)">head</text>
   </g>
   <g id="text_7">
    <text style="fill: #25313b; font: 20px 'DejaVu Sans'" transform="translate(1019.1009 99.512937)">Canonical</text>
    <text style="fill: #25313b; font: 20px 'DejaVu Sans'" transform="translate(1001.7384 121.908562)">Actor surface</text>
   </g>
   <g id="text_8">
    <!-- $\times 3$ updates -->
    <g style="fill: #25313b" transform="translate(679.5432 43.1784)">
     <text>
      <tspan style="font: 18px 'DejaVu Sans'" x="0 15.082031 26.53418 32.255859 43.664062 55.089844 66.515625 77.545898 84.603516 95.677734" y="-0.328125">×3 updates</tspan>
     </text>
    </g>
   </g>
   <g id="text_9">
    <text style="fill: #25313b; font: 20px 'DejaVu Sans'" transform="translate(53.820413 247.418937)">Sparse build</text>
    <text style="fill: #25313b; font: 20px 'DejaVu Sans'" transform="translate(18.69385 269.814562)">LiDAR observations</text>
   </g>
   <g id="text_10">
    <text style="fill: #25313b; font: 16px 'DejaVu Sans'; text-anchor: middle" x="383.544" y="180.7488" transform="rotate(-0 383.544 180.7488)">Canonical seeds</text>
   </g>
   <g id="text_11">
    <text style="fill: #25313b; font: 19px 'DejaVu Sans'" transform="translate(332.472022 251.623291)">Calibration + metric scale</text>
    <text style="fill: #25313b; font: 19px 'DejaVu Sans'" transform="translate(329.072803 272.899134)">+ known Actor trajectories</text>
   </g>
   <g id="text_12">
    <text style="fill: #25313b; font: 18px 'DejaVu Sans'" transform="translate(861.2352 251.907244)">Known motion + background</text>
    <text style="fill: #25313b; font: 18px 'DejaVu Sans'" transform="translate(855.795825 272.063306)">Hard first-intersection readout</text>
   </g>
   <g id="text_13">
    <text style="fill: #25313b; font: 16px 'DejaVu Sans'; text-anchor: start" x="44.964" y="22.6454" transform="rotate(-0 44.964 22.6454)">Frozen</text>
   </g>
   <g id="text_14">
    <text style="fill: #25313b; font: 16px 'DejaVu Sans'; text-anchor: start" x="191.088" y="22.6454" transform="rotate(-0 191.088 22.6454)">Trainable</text>
   </g>
   <g id="text_15">
    <text style="fill: #25313b; font: 16px 'DejaVu Sans'; text-anchor: start" x="365.724" y="22.6454" transform="rotate(-0 365.724 22.6454)">Fixed operation / read-only data</text>
   </g>
   <g id="text_16">
    <text style="fill: #25313b; font: 18px 'DejaVu Sans'; text-anchor: start" x="14.3136" y="348.234075" transform="rotate(-0 14.3136 348.234075)">Native control: DPT depth → canonical LiDAR fusion → PCA patches → the same physical readout.</text>
   </g>
  </g>
 </g>
 <defs>
  <clipPath id="p349d09cdf7">
   <rect x="5.76" y="1.836" width="1140.48" height="363.528"/>
  </clipPath>
 </defs>
</svg>
