<svg xmlns="http://www.w3.org/2000/svg" width="1120" height="260" viewBox="0 0 1120 260"><defs><marker id="a" markerWidth="8" markerHeight="8" refX="7" refY="4" orient="auto"><path d="M0 0L8 4L0 8" fill="none" stroke="#376377"/></marker></defs><rect width="1120" height="260" fill="#f5f8fa"/><g fill="white" stroke="#96afbc" stroke-width="1.5"><rect x="24" y="55" width="230" height="108" rx="8"/><rect x="300" y="55" width="190" height="108" rx="8"/><rect x="536" y="55" width="254" height="108" rx="8"/><rect x="836" y="55" width="260" height="108" rx="8"/></g><g stroke="#376377" stroke-width="2" marker-end="url(#a)"><path d="M254 109H290"/><path d="M490 109H526"/><path d="M790 109H826"/></g><g font-family="Arial,Microsoft YaHei,sans-serif" fill="#233f50" text-anchor="middle"><text x="139" y="84" font-size="17">真实截止前 RGB</text><text x="139" y="116" font-size="15">1 时刻 × 7 视角</text><text x="139" y="143" font-size="15">3 时刻 × 7 视角（2Hz）</text><text x="395" y="97" font-size="19">官方 DVGT-1</text><text x="395" y="132" font-size="15">固定权重 / 原生点图</text><text x="663" y="84" font-size="17">截止时刻点图 → 世界坐标</text><text x="663" y="116" font-size="15">已知相机射线仅用于评价</text><text x="663" y="143" font-size="15">共同像素：角误差 / 正深度</text><text x="966" y="89" font-size="18">检查原生几何可用范围</text><text x="966" y="121" font-size="15">两例均有方向残余</text><text x="966" y="148" font-size="15">本轮不接入生成闭环</text><text x="560" y="214" font-size="16">没有 LiDAR、GT 对象形状或拟合变换输入 DVGT；新增历史是额外信息；0 次世界模型生成</text></g></svg>
