<?xml version="1.0" encoding="utf-8" standalone="no"?>
<!DOCTYPE svg PUBLIC "-//W3C//DTD SVG 1.1//EN"
  "http://www.w3.org/Graphics/SVG/1.1/DTD/svg11.dtd">
<svg xmlns:xlink="http://www.w3.org/1999/xlink" width="1008pt" height="237.6pt" viewBox="0 0 1008 237.6" xmlns="http://www.w3.org/2000/svg" version="1.1">
 <metadata>
  <rdf:RDF xmlns:dc="http://purl.org/dc/elements/1.1/" xmlns:cc="http://creativecommons.org/ns#" xmlns:rdf="http://www.w3.org/1999/02/22-rdf-syntax-ns#">
   <cc:Work>
    <dc:type rdf:resource="http://purl.org/dc/dcmitype/StillImage"/>
    <dc:date>2026-09-20T22:48:03.417381</dc:date>
    <dc:format>image/svg+xml</dc:format>
    <dc:creator>
     <cc:Agent>
      <dc:title>Matplotlib v3.10.3, https://matplotlib.org/</dc:title>
     </cc:Agent>
    </dc:creator>
   </cc:Work>
  </rdf:RDF>
 </metadata>
 <defs>
  <style type="text/css">*{stroke-linejoin: round; stroke-linecap: butt}</style>
 </defs>
 <g id="figure_1">
  <g id="patch_1">
   <path d="M 0 237.6
L 1008 237.6
L 1008 0
L 0 0
z
" style="fill: #ffffff"/>
  </g>
  <g id="axes_1">
   <g id="text_1">
    <g id="patch_2">
     <path d="M 157.509562 104.323163
L 235.106437 104.323163
Q 243.506437 104.323163 243.506437 95.923163
L 243.506437 70.872038
Q 243.506437 62.472038 235.106437 62.472038
L 157.509562 62.472038
Q 149.109562 62.472038 149.109562 70.872038
L 149.109562 95.923163
Q 149.109562 104.323163 157.509562 104.323163
z
" style="fill: #eef4f7; stroke: #8099a6; stroke-linejoin: miter"/>
    </g>
    <text style="font-size: 12px; font-family: 'DejaVu Sans', 'Bitstream Vera Sans', 'Computer Modern Sans Serif', 'Lucida Grande', 'Verdana', 'Geneva', 'Lucid', 'Arial', 'Helvetica', 'Avant Garde', sans-serif" transform="translate(157.509562 79.990163)">Same RGB +</text>
    <text style="font-size: 12px; font-family: 'DejaVu Sans', 'Bitstream Vera Sans', 'Computer Modern Sans Serif', 'Lucida Grande', 'Verdana', 'Geneva', 'Lucid', 'Arial', 'Helvetica', 'Avant Garde', sans-serif" transform="translate(160.238625 93.427537)">DVGT range</text>
   </g>
   <g id="text_2">
    <g id="patch_3">
     <path d="M 318.159188 104.323163
L 418.184813 104.323163
Q 426.584812 104.323163 426.584812 95.923163
L 426.584812 70.872038
Q 426.584812 62.472038 418.184813 62.472038
L 318.159188 62.472038
Q 309.759188 62.472038 309.759188 70.872038
L 309.759188 95.923163
Q 309.759188 104.323163 318.159188 104.323163
z
" style="fill: #eef4f7; stroke: #8099a6; stroke-linejoin: miter"/>
    </g>
    <text style="font-size: 12px; font-family: 'DejaVu Sans', 'Bitstream Vera Sans', 'Computer Modern Sans Serif', 'Lucida Grande', 'Verdana', 'Geneva', 'Lucid', 'Arial', 'Helvetica', 'Avant Garde', sans-serif" transform="translate(330.006375 79.990163)">Two ordinary</text>
    <text style="font-size: 12px; font-family: 'DejaVu Sans', 'Bitstream Vera Sans', 'Computer Modern Sans Serif', 'Lucida Grande', 'Verdana', 'Geneva', 'Lucid', 'Arial', 'Helvetica', 'Avant Garde', sans-serif" transform="translate(318.159188 93.427537)">3D state exports</text>
   </g>
   <g id="text_3">
    <g id="patch_4">
     <path d="M 509.826563 104.323163
L 601.493438 104.323163
Q 609.893438 104.323163 609.893438 95.923163
L 609.893438 70.872038
Q 609.893438 62.472038 601.493438 62.472038
L 509.826563 62.472038
Q 501.426563 62.472038 501.426563 70.872038
L 501.426563 95.923163
Q 501.426563 104.323163 509.826563 104.323163
z
" style="fill: #eef4f7; stroke: #8099a6; stroke-linejoin: miter"/>
    </g>
    <text style="font-size: 12px; font-family: 'DejaVu Sans', 'Bitstream Vera Sans', 'Computer Modern Sans Serif', 'Lucida Grande', 'Verdana', 'Geneva', 'Lucid', 'Arial', 'Helvetica', 'Avant Garde', sans-serif" transform="translate(516.332813 79.990163)">OmniDreams</text>
    <text style="font-size: 12px; font-family: 'DejaVu Sans', 'Bitstream Vera Sans', 'Computer Modern Sans Serif', 'Lucida Grande', 'Verdana', 'Geneva', 'Lucid', 'Arial', 'Helvetica', 'Avant Garde', sans-serif" transform="translate(509.826563 93.427537)">generated RGB</text>
   </g>
   <g id="text_4">
    <g id="patch_5">
     <path d="M 682.146 104.323163
L 788.526 104.323163
Q 796.926 104.323163 796.926 95.923163
L 796.926 70.872038
Q 796.926 62.472038 788.526 62.472038
L 682.146 62.472038
Q 673.746 62.472038 673.746 70.872038
L 673.746 95.923163
Q 673.746 104.323163 682.146 104.323163
z
" style="fill: #eef4f7; stroke: #8099a6; stroke-linejoin: miter"/>
    </g>
    <text style="font-size: 12px; font-family: 'DejaVu Sans', 'Bitstream Vera Sans', 'Computer Modern Sans Serif', 'Lucida Grande', 'Verdana', 'Geneva', 'Lucid', 'Arial', 'Helvetica', 'Avant Garde', sans-serif" transform="translate(682.146 79.990163)">Detector / tracker</text>
    <text style="font-size: 12px; font-family: 'DejaVu Sans', 'Bitstream Vera Sans', 'Computer Modern Sans Serif', 'Lucida Grande', 'Verdana', 'Geneva', 'Lucid', 'Arial', 'Helvetica', 'Avant Garde', sans-serif" transform="translate(700.283813 93.427537)">+ fixed IDM</text>
   </g>
   <g id="text_5">
    <g id="patch_6">
     <path d="M 690.546 199.458202
L 780.126 199.458202
Q 788.526 199.458202 788.526 191.058202
L 788.526 166.007077
Q 788.526 157.607078 780.126 157.607078
L 690.546 157.607078
Q 682.146 157.607078 682.146 166.007077
L 682.146 191.058202
Q 682.146 199.458202 690.546 199.458202
z
" style="fill: #eef4f7; stroke: #8099a6; stroke-linejoin: miter"/>
    </g>
    <text style="font-size: 12px; font-family: 'DejaVu Sans', 'Bitstream Vera Sans', 'Computer Modern Sans Serif', 'Lucida Grande', 'Verdana', 'Geneva', 'Lucid', 'Arial', 'Helvetica', 'Avant Garde', sans-serif" transform="translate(693.381938 175.125203)">Ego dynamics</text>
    <text style="font-size: 12px; font-family: 'DejaVu Sans', 'Bitstream Vera Sans', 'Computer Modern Sans Serif', 'Lucida Grande', 'Verdana', 'Geneva', 'Lucid', 'Arial', 'Helvetica', 'Avant Garde', sans-serif" transform="translate(690.546 188.562578)">+ next camera</text>
   </g>
   <g id="text_6">
    <g id="patch_7">
     <path d="M 307.814813 199.458202
L 428.529187 199.458202
Q 436.929188 199.458202 436.929188 191.058202
L 436.929188 166.007077
Q 436.929188 157.607078 428.529187 157.607078
L 307.814813 157.607078
Q 299.414813 157.607078 299.414813 166.007077
L 299.414813 191.058202
Q 299.414813 199.458202 307.814813 199.458202
z
" style="fill: #eef4f7; stroke: #8099a6; stroke-linejoin: miter"/>
    </g>
    <text style="font-size: 12px; font-family: 'DejaVu Sans', 'Bitstream Vera Sans', 'Computer Modern Sans Serif', 'Lucida Grande', 'Verdana', 'Geneva', 'Lucid', 'Arial', 'Helvetica', 'Avant Garde', sans-serif" transform="translate(319.37325 175.125203)">Direct-state IDM</text>
    <text style="font-size: 12px; font-family: 'DejaVu Sans', 'Bitstream Vera Sans', 'Computer Modern Sans Serif', 'Lucida Grande', 'Verdana', 'Geneva', 'Lucid', 'Arial', 'Helvetica', 'Avant Garde', sans-serif" transform="translate(307.814813 188.562578)">control (extra input)</text>
   </g>
   <g id="patch_8">
    <path d="M 268.615727 83.3976
Q 278.332963 83.3976 286.149542 83.3976
" style="fill: none; stroke: #355466; stroke-width: 1.7; stroke-linecap: round"/>
    <path d="M 282.149542 81.3976
L 286.149542 83.3976
L 282.149542 85.3976
" style="fill: none; stroke: #355466; stroke-width: 1.7; stroke-linecap: round"/>
   </g>
   <g id="patch_9">
    <path d="M 456.106588 83.3976
Q 469.72791 83.3976 481.448574 83.3976
" style="fill: none; stroke: #355466; stroke-width: 1.7; stroke-linecap: round"/>
    <path d="M 477.448574 81.3976
L 481.448574 83.3976
L 477.448574 85.3976
" style="fill: none; stroke: #355466; stroke-width: 1.7; stroke-linecap: round"/>
   </g>
   <g id="patch_10">
    <path d="M 635.782588 83.3976
Q 641.593969 83.3976 645.504693 83.3976
" style="fill: none; stroke: #355466; stroke-width: 1.7; stroke-linecap: round"/>
    <path d="M 641.504693 81.3976
L 645.504693 83.3976
L 641.504693 85.3976
" style="fill: none; stroke: #355466; stroke-width: 1.7; stroke-linecap: round"/>
   </g>
   <g id="patch_11">
    <path d="M 735.336 125.646738
Q 735.336 133.711399 735.336 139.875403
" style="fill: none; stroke: #355466; stroke-width: 1.7; stroke-linecap: round"/>
    <path d="M 737.336 135.875403
L 735.336 139.875403
L 733.336 135.875403
" style="fill: none; stroke: #355466; stroke-width: 1.7; stroke-linecap: round"/>
   </g>
   <g id="patch_12">
    <path d="M 368.172 125.644951
Q 368.172 131.877465 368.172 136.209322
" style="fill: none; stroke: #355466; stroke-width: 1.7; stroke-linecap: round"/>
    <path d="M 370.172 132.209322
L 368.172 136.209322
L 366.172 132.209322
" style="fill: none; stroke: #355466; stroke-width: 1.7; stroke-linecap: round"/>
   </g>
   <g id="patch_13">
    <path d="M 655.2164 178.53264
L 570.66 178.53264
Q 555.66 178.53264 555.66 163.53264
L 555.66 127.548794
" style="fill: none; stroke: #355466; stroke-width: 1.7; stroke-linecap: round"/>
    <path d="M 553.66 131.548794
L 555.66 127.548794
L 557.66 131.548794
" style="fill: none; stroke: #355466; stroke-width: 1.7; stroke-linecap: round"/>
   </g>
   <g id="text_7">
    <text style="font-size: 10px; font-family: 'DejaVu Sans', 'Bitstream Vera Sans', 'Computer Modern Sans Serif', 'Lucida Grande', 'Verdana', 'Geneva', 'Lucid', 'Arial', 'Helvetica', 'Avant Garde', sans-serif; text-anchor: end; fill: #526878" x="875.952" y="130.96512" transform="rotate(-0 875.952 130.96512)">Actions</text>
   </g>
   <g id="text_8">
    <text style="font-size: 10px; font-family: 'DejaVu Sans', 'Bitstream Vera Sans', 'Computer Modern Sans Serif', 'Lucida Grande', 'Verdana', 'Geneva', 'Lucid', 'Arial', 'Helvetica', 'Avant Garde', sans-serif; text-anchor: middle; fill: #526878" x="500.976" y="176.70312" transform="rotate(-0 500.976 176.70312)">Feedback</text>
   </g>
  </g>
 </g>
</svg>
