<svg xmlns="http://www.w3.org/2000/svg" width="1100" height="360" viewBox="0 0 1100 360">
<defs><marker id="arrow" markerWidth="10" markerHeight="10" refX="8" refY="3" orient="auto"><path d="M0 0L8 3L0 6Z" fill="#475569"/></marker></defs>
<rect width="1100" height="360" fill="#f8fafc"/>
<g font-family="sans-serif" text-anchor="middle" fill="#0f172a">
<text x="550" y="30" font-size="22">Single-GPU engineering smoke — not the 24-case benchmark</text>
<g fill="#e2e8f0" stroke="#64748b"><rect x="20" y="125" width="220" height="110" rx="12"/><rect x="300" y="75" width="390" height="220" rx="12"/><rect x="765" y="70" width="310" height="110" rx="12"/><rect x="765" y="205" width="310" height="100" rx="12"/></g>
<text x="130" y="158" font-size="18">Frozen local inputs</text><text x="130" y="185" font-size="15">scene / checkpoint / seed</text><text x="130" y="211" font-size="15">factual + one intervention</text>
<text x="495" y="107" font-size="18">RTX 3090 — sequential execution</text><text x="495" y="143" font-size="16">OmniDreams: ego slowdown</text><text x="495" y="173" font-size="16">GaussianDWM: synthetic QA contract</text><text x="495" y="203" font-size="16">HUGSIM: actor removal, isolated processes</text><text x="495" y="255" font-size="15">ReSim: VAE OOM / StreetGS: no checkpoint</text>
<text x="920" y="104" font-size="18">Actual outputs + evidence</text><text x="920" y="135" font-size="16">paired RGB / actor state / QA</text><text x="920" y="160" font-size="16">logs / memory / failures</text>
<text x="920" y="238" font-size="18">Bench scoring remains separate</text><text x="920" y="267" font-size="16">alignment + human review pending</text><text x="920" y="291" font-size="16">six dimensions: null, no total score</text>
</g><g stroke="#475569" stroke-width="2" marker-end="url(#arrow)"><path d="M240 180H300"/><path d="M690 135H765"/><path d="M920 180V205"/></g>
</svg>
